<svg width="1024" height="1024" viewBox="0 0 1024 1024" fill="none" xmlns="http://www.w3.org/2000/svg">

    <path d="M1024 512C1024 885.64 885.64 1024 512 1024C138.36 1024 0 885.64 0 512C0 138.36 138.36 0 512 0C885.64 0 1024 138.36 1024 512Z" fill="#1A1C27"/>

    <path d="M984 512C984 864.45 864.45 984 512 984C159.55 984 40 864.45 40 512C40 159.55 159.55 40 512 40C864.45 40 984 159.55 984 512Z" stroke="#2C2E3B" stroke-width="40"/>

    <g filter="url(#shadow)">

        <path d="M256 280H768C812.183 280 848 315.817 848 360V660C848 704.183 812.183 740 768 740H380L256 840V740C211.817 740 176 704.183 176 660V360C176 315.817 211.817 280 256 280Z" fill="#4A90E2"/>

    </g>

    <rect x="276" y="410" width="472" height="60" rx="30" fill="white" fill-opacity="0.95"/>

    <rect x="276" y="530" width="280" height="60" rx="30" fill="white" fill-opacity="0.7"/>

    <g transform="translate(720, 240)">

        <path d="M100 0C100 55.23 144.77 100 200 100C144.77 100 100 144.77 100 200C100 144.77 55.23 100 0 100C55.23 100 100 55.23 100 0Z" fill="#FF6B35"/>

        <circle cx="100" cy="100" r="35" fill="white" fill-opacity="0.4"/>

    </g>

    <defs>

        <filter id="shadow" x="150" y="250" width="750" height="650" filterUnits="userSpaceOnUse" color-interpolation-filters="sRGB">

            <feDropShadow dx="0" dy="20" stdDeviation="15" flood-color="#000" flood-opacity="0.35"/>

        </filter>

    </defs>

</svg>